<svg width="238" height="211" viewBox="0 0 238 211" fill="none" xmlns="http://www.w3.org/2000/svg">
<path d="M119.179 22.5405L119.346 22.7386L119.512 22.5404C125.549 15.3437 133.112 9.61877 141.637 5.79177C150.161 1.96489 159.429 0.134337 168.749 0.436326C187.696 1.18666 205.579 9.50215 218.488 23.5654C231.397 37.629 238.281 56.2962 237.634 75.4852L237.634 75.4851V75.4925C237.634 113.131 210.467 137.002 186.412 158.132C183.373 160.792 180.313 163.493 177.294 166.205L177.294 166.206L167.797 174.799L167.792 174.804C155.923 186.283 143.465 197.12 130.467 207.268C127.169 209.428 123.325 210.577 119.397 210.577C115.47 210.577 111.625 209.428 108.327 207.268C95.731 197.421 83.6441 186.922 72.115 175.815L72.11 175.811L61.5315 166.237L61.5312 166.237C58.8465 163.815 56.1444 161.438 53.4659 159.081C53.2247 158.869 52.9838 158.657 52.7431 158.445C27.3388 136.084 1.16062 113.027 1.16062 75.4925H1.16075L1.1605 75.4852C0.513427 56.2962 7.39755 37.629 20.3067 23.5654C33.2156 9.50222 51.0987 1.18675 70.0455 0.436337C79.3472 0.15919 88.5916 2.00147 97.0959 5.82717C105.6 9.65303 113.148 15.3648 119.179 22.5405Z" fill="#FF0014" stroke="#FF0014" stroke-width="0.434629"/>
</svg>
